<?xml version="1.0" standalone="no"?>
<!DOCTYPE svg PUBLIC "-//W3C//DTD SVG 20010904//EN"
 "http://www.w3.org/TR/2001/REC-SVG-20010904/DTD/svg10.dtd">
<svg version="1.0" xmlns="http://www.w3.org/2000/svg"
 width="125.000000pt" height="125.000000pt" viewBox="0 0 125.000000 125.000000"
 preserveAspectRatio="xMidYMid meet">
<metadata>
Created by potrace 1.11, written by Peter Selinger 2001-2013
</metadata>
<g transform="translate(0.000000,125.000000) scale(0.100000,-0.100000)"
fill="#000000" stroke="none">
<path d="M175 645 c-91 -187 -167 -344 -168 -350 -1 -6 82 -10 223 -10 l225 0
0 45 0 45 -149 2 c-82 1 -150 3 -151 5 -2 2 36 82 83 178 47 96 86 179 86 184
1 5 6 11 13 13 10 4 76 -124 206 -397 17 -36 35 -68 40 -71 5 -4 28 -5 51 -4
29 1 40 6 38 16 -3 14 -73 160 -243 508 l-87 176 -167 -340z"/>
<path d="M1008 935 c-2 -3 -29 -7 -59 -9 -30 -2 -70 -10 -89 -17 -36 -12 -109
-64 -123 -86 -4 -6 -14 -19 -22 -27 -27 -27 -57 -110 -60 -166 -6 -100 26
-183 96 -252 33 -32 94 -72 101 -67 2 2 14 -4 28 -11 17 -9 76 -14 197 -15
l173 -2 0 47 0 47 -152 1 c-177 1 -185 3 -243 37 -118 68 -144 218 -59 329 58
77 99 89 291 90 l163 1 0 49 c0 46 -1 48 -24 44 -14 -3 -30 -2 -37 2 -6 5 -24
4 -39 0 -15 -4 -33 -4 -40 0 -7 4 -25 4 -40 0 -15 -4 -34 -4 -42 1 -8 5 -17 6
-20 4z"/>
</g>
</svg>
