<svg width="512" height="512" xmlns="http://www.w3.org/2000/svg">

 <g>
  <title>background</title>
  <rect fill="none" id="canvas_background" height="402" width="582" y="-1" x="-1"/>
 </g>
 <g>
  <title>Layer 1</title>
  <path id="svg_2" fill="none" stroke="#fefefe" stroke-width="15" stroke-linecap="round" stroke-linejoin="round" stroke-miterlimit="10" d="m438.717,162.307c0.292,4.088 0.292,8.174 0.292,12.259c0,124.634 -94.861,268.237 -268.237,268.237c-53.414,0 -103.033,-15.468 -144.771,-42.321c7.588,0.874 14.885,1.166 22.766,1.166c44.073,0 84.645,-14.884 117.043,-40.276c-41.447,-0.877 -76.181,-28.022 -88.147,-65.383c5.838,0.875 11.675,1.459 17.805,1.459c8.464,0 16.93,-1.168 24.809,-3.209c-43.197,-8.758 -75.597,-46.702 -75.597,-92.527l0,-1.167c12.55,7.005 27.146,11.383 42.614,11.967c-25.393,-16.93 -42.03,-45.826 -42.03,-78.516c0,-17.515 4.669,-33.566 12.842,-47.577c46.41,57.208 116.169,94.569 194.391,98.655c-1.458,-7.005 -2.335,-14.3 -2.335,-21.599c0,-51.954 42.032,-94.277 94.277,-94.277c27.145,0 51.662,11.383 68.884,29.771c21.307,-4.085 41.736,-11.967 59.834,-22.766c-7.005,21.892 -21.891,40.279 -41.446,51.954c18.973,-2.042 37.361,-7.298 54.289,-14.594c-12.842,18.68 -28.896,35.317 -47.283,48.744l0,0z"/>
 </g>
</svg>